<svg width="27" height="16" viewBox="0 0 27 16" fill="none" xmlns="http://www.w3.org/2000/svg">
<path d="M21.062 4.79993C20.8439 4.80136 20.6261 4.81438 20.4094 4.83899C19.6796 3.14736 18.3866 1.75852 16.7485 0.906886C15.1105 0.0552512 13.2278 -0.207004 11.4182 0.164397C9.60867 0.535798 7.98312 1.51812 6.81596 2.9455C5.64881 4.37289 5.01154 6.15791 5.01174 7.99928C5.01174 8.05214 5.01174 8.10041 5.01174 8.15098C4.65597 8.05124 4.28824 8.0002 3.91866 7.99928C2.87082 8.02431 1.87433 8.45677 1.14211 9.20425C0.409896 9.95173 0 10.955 0 11.9996C0 13.0443 0.409896 14.0475 1.14211 14.795C1.87433 15.5425 2.87082 15.975 3.91866 16H21.0574C22.5279 15.9703 23.9281 15.3673 24.9575 14.3203C25.9869 13.2733 26.5635 11.8658 26.5635 10.4C26.5635 8.93409 25.9869 7.52663 24.9575 6.47965C23.9281 5.43267 22.5279 4.82962 21.0574 4.79993H21.062Z" fill="#155CE7"/>
<path d="M13.0371 14.2921C16.5242 14.2921 19.3511 11.4746 19.3511 7.99906C19.3511 4.52353 16.5242 1.70605 13.0371 1.70605C9.54991 1.70605 6.72302 4.52353 6.72302 7.99906C6.72302 11.4746 9.54991 14.2921 13.0371 14.2921Z" fill="white"/>
</svg>
